# xmcd
#
# Track frame offsets: 
#        150
#        12297
#        27848
#        42354
#        55657
#        68822
#        84344
#        94478
#        105212
#        117031
#        131929
#        145233
#        160113
#        173623
#        179693
#        194916
#        209682
#
# Disc length: 3000 seconds
#
# Revision: 0
# Processed by: cddbd v1.5.2PL0 Copyright (c) Steve Scherf et al.
# Submitted via: ExactAudioCopy v0.95b3
#
DISCID=ef0bb611
DTITLE=Summer Church - A Compilation
DYEAR=2003
DGENRE=Bluegrass
TTITLE0=Summer Church
TTITLE1='Tis So Sweet
TTITLE2=Two White Horses
TTITLE3=I Love to Tell the Story
TTITLE4=I Surrender All
TTITLE5=Power in the Blood - I'll Fly Away
TTITLE6=I Can't Wait for the Day
TTITLE7=Chapel Hill
TTITLE8=Church in the Wildwood
TTITLE9=The River Is Wide
TTITLE10=Gospel Trail
TTITLE11=Will the Circle be Unbroken
TTITLE12=Walkin' on Water
TTITLE13=In the Sweet By and By
TTITLE14=Day of Judgment
TTITLE15=No Dark Valley
TTITLE16=Orange Blossom Special
EXTD=
EXTT0=
EXTT1=
EXTT2=
EXTT3=
EXTT4=
EXTT5=
EXTT6=
EXTT7=
EXTT8=
EXTT9=
EXTT10=
EXTT11=
EXTT12=
EXTT13=
EXTT14=
EXTT15=
EXTT16=
PLAYORDER=
